<svg width="599" height="276" viewBox="0 0 599 276" fill="none" xmlns="http://www.w3.org/2000/svg">
<path d="M44.7463 4C-9.72513 26.0179 15.4044 105.489 50.0215 105.489C80.8128 105.489 119.626 37.027 88.4382 37.027C56.4437 37.027 36.1457 171.887 14.8158 171.887C3.46277 171.887 3.91559 162.266 6.55868 157.438C24.4495 124.755 141.074 125.249 141.074 77.6225C141.074 71.774 139.698 66.7856 136.602 66.7856C113.597 66.7856 62.5955 171.887 103.576 171.887C119.057 171.887 134.194 129.743 159.997 125.615C144.859 133.183 136.602 146.237 136.602 157.438C136.602 162.598 138.666 171.887 146.579 171.887C157.932 171.887 167.565 149.869 176.166 138.172C169.285 151.589 165.845 171.887 178.23 171.887C190.615 171.887 262.862 99.6405 262.862 73.8382C262.862 66.9576 258.733 59.733 251.164 59.733C227.427 59.733 191.991 107.897 191.991 142.644C191.991 164.008 205.064 171.887 218.138 171.887C231.211 171.887 237.403 157.438 237.403 151.589C237.403 142.644 224.33 142.644 224.33 151.589C224.33 157.438 228.459 157.438 231.899 157.438C237.403 157.438 250.476 149.181 255.637 142.644C249.988 152.78 250.648 172.747 264.238 172.747C273.527 172.747 289.696 143.676 289.696 132.323C289.696 118.734 267.506 113.746 267.506 134.732C267.506 155.717 298.513 142.72 304.877 137.732C300.356 144.138 281 175.887 298.921 175.887C309.5 175.887 325.819 124.755 333.732 124.755C356.023 124.755 331.752 153.609 329.5 157.438C350.486 144.364 354.546 165.522 354.546 178.596C354.546 225.728 313.95 271.656 292.792 271.656C287.46 271.656 279.375 271.656 279.375 249.81C279.375 211.278 380.005 123.895 404.431 129.227C388.262 132.323 374.327 137.312 374.327 157.438C374.327 165.006 376.736 171.887 387.057 171.887C397.378 171.887 408.387 155.029 416.987 139.204C413.741 147.692 403.035 171.887 419.396 171.887C424.04 171.887 430.405 164.662 434.189 157.438C430.749 169.651 435.221 171.887 439.005 171.887C447.09 171.887 466.923 129.181 471 124.755C467.08 131.657 450.421 171.887 468.247 171.887C477.88 171.887 499.898 136.796 503.339 129.227C500.071 139.204 497.49 150.041 497.49 159.33C497.49 163.974 500.415 171.887 507.983 171.887C515.552 171.887 526.905 151.761 529.657 147.633C532.41 143.504 520.196 171.887 544.966 171.887C573.005 171.887 595 151.245 595 118.562C595 68.5 531.657 67.5 531.657 96.5C531.657 108 541.5 112.5 550.528 112.5C576.5 112.5 553.691 32 503.339 77.6225" stroke="#EB5757" stroke-width="8" stroke-linecap="round"/>
</svg>
