<svg width="244" height="53" viewBox="0 0 244 53" fill="none" xmlns="http://www.w3.org/2000/svg">
<path d="M2.5 50.9995C27.5 50.9995 54.5 43.148 54.5 21.9997C54.5 0.851456 27.5 4 27.5 22C27.5 43.5232 44.5 50.9995 63 50.9995C81.5 50.9995 106 40.2477 106 21.9994C106 -3 78 -4 78 21.9994C78 39.0068 90.6998 50.9994 117.5 50.9995C145 50.9996 155 34.3172 155 19.9994C155 -3.49955 128.5 -3.5 128.5 19.9994C128.5 37.3559 149 50.9995 169.5 50.9995C190 50.9995 206.5 38.0003 206.5 21.9994C206.5 4.26531 182 1.49944 180.5 21.9994C179 42.4994 214.5 50.9995 242 50.9995" stroke="#EB5757" stroke-width="4" stroke-linecap="round"/>
</svg>
