<svg width="30" height="30" viewBox="0 0 30 30" fill="none" xmlns="http://www.w3.org/2000/svg">
<circle cx="15" cy="15" r="15" fill="#7294C7"/>
<path d="M22.3546 18.8367C22.3546 18.7744 22.2924 18.7744 22.2924 18.7122C22.0433 18.214 21.4829 17.5913 20.7357 16.9064C20.3621 16.5951 20.1753 16.346 20.0507 16.2215C19.8639 15.9724 19.864 15.7856 19.9262 15.5365C19.9885 15.3497 20.2375 15.0384 20.6734 14.478C20.9225 14.1666 21.047 13.9798 21.2338 13.793C22.1678 12.5477 22.6037 11.7382 22.4792 11.3646L22.4169 11.3024C22.3546 11.2401 22.2924 11.1778 22.1678 11.1778C22.0433 11.1156 21.8565 11.1156 21.6697 11.1778H19.3035C19.2413 11.1778 19.2413 11.1778 19.1167 11.1778C19.0545 11.1778 18.9922 11.1778 18.9922 11.1778H18.9299H18.8677L18.8054 11.2401C18.7431 11.3024 18.7431 11.3024 18.7431 11.3646C18.4941 12.0496 18.1827 12.61 17.8714 13.2326C17.6846 13.544 17.4978 13.8553 17.311 14.1044C17.1242 14.3535 16.9996 14.5402 16.8751 14.6648C16.7506 14.7893 16.626 14.8516 16.5638 14.9761C16.5015 15.0384 16.377 15.1007 16.377 15.0384C16.3147 15.0384 16.2524 15.0384 16.2524 14.9761C16.1902 14.9139 16.1279 14.8516 16.0656 14.7893C16.0034 14.727 16.0034 14.6025 15.9411 14.478C15.9411 14.3534 15.9411 14.2289 15.9411 14.1666C15.9411 14.1044 15.9411 13.9176 15.9411 13.793C15.9411 13.6062 15.9411 13.4817 15.9411 13.4194C15.9411 13.2326 15.9411 12.9836 15.9411 12.7345C15.9411 12.4854 15.9411 12.2986 15.9411 12.1741C15.9411 12.0496 15.9411 11.8628 15.9411 11.7382C15.9411 11.5514 15.9411 11.4269 15.9411 11.3646C15.9411 11.3024 15.8789 11.1778 15.8789 11.1156C15.8166 11.0533 15.7543 10.991 15.692 10.9288C15.6298 10.8665 15.5052 10.8665 15.443 10.8042C15.1316 10.742 14.758 10.6797 14.3222 10.6797C13.3259 10.6797 12.641 10.742 12.3919 10.8665C12.2673 10.9288 12.1428 10.991 12.0805 11.1156C11.956 11.2401 11.956 11.3024 12.0183 11.3024C12.3296 11.3646 12.5787 11.4892 12.7032 11.676L12.7655 11.8005C12.8278 11.8628 12.8277 11.9873 12.89 12.1741C12.9523 12.3609 12.9523 12.5477 12.9523 12.7968C12.9523 13.1704 12.9523 13.544 12.9523 13.793C12.9523 14.1044 12.89 14.2912 12.89 14.478C12.89 14.6648 12.8278 14.7893 12.7655 14.8516C12.7032 14.9761 12.7032 15.0384 12.6409 15.0384C12.6409 15.0384 12.6409 15.1007 12.5787 15.1007C12.5164 15.1007 12.4541 15.1629 12.3296 15.1629C12.2673 15.1629 12.1428 15.1007 12.0805 15.0384C11.956 14.9761 11.8315 14.8516 11.7692 14.7271C11.6447 14.6025 11.5201 14.4157 11.3956 14.1666C11.2711 13.9176 11.0843 13.6685 10.9597 13.2949L10.8352 13.0458C10.7729 12.9213 10.6484 12.6722 10.5239 12.3609C10.3993 12.0496 10.2748 11.8005 10.1503 11.4892C10.088 11.3646 10.0257 11.3024 9.96347 11.2401H9.9012C9.9012 11.2401 9.83892 11.1778 9.77665 11.1778C9.71439 11.1778 9.65213 11.1156 9.58986 11.1156H7.34824C7.09917 11.1156 6.97464 11.1778 6.91237 11.2401L6.8501 11.3024C6.8501 11.3024 6.8501 11.3646 6.8501 11.4269C6.8501 11.4892 6.8501 11.5514 6.91237 11.676C7.2237 12.4232 7.59731 13.1704 7.97091 13.9176C8.34451 14.6025 8.71812 15.2252 8.96719 15.6611C9.27852 16.0969 9.52759 16.5328 9.83892 16.9064C10.1503 17.28 10.3371 17.5291 10.3993 17.6536C10.5239 17.7781 10.5861 17.8404 10.6484 17.9027L10.8352 18.0895C10.9597 18.214 11.1465 18.4008 11.3956 18.5876C11.6447 18.7744 11.956 18.9612 12.2673 19.148C12.5787 19.3348 12.9523 19.4594 13.3259 19.5839C13.7618 19.7084 14.1354 19.7707 14.509 19.7084H15.443C15.6298 19.7084 15.7543 19.6462 15.8789 19.5216L15.9411 19.4594C15.9411 19.3971 16.0034 19.3971 16.0034 19.3348C16.0034 19.2726 16.0034 19.2103 16.0034 19.0858C16.0034 18.8367 16.0034 18.6499 16.0656 18.4631C16.1279 18.2763 16.1279 18.1518 16.1902 18.0272C16.2525 17.9027 16.3147 17.8404 16.377 17.7781C16.4392 17.7159 16.5015 17.6536 16.5015 17.6536H16.5638C16.6883 17.5913 16.8751 17.6536 16.9997 17.7781C17.1865 17.9027 17.3732 18.0895 17.4978 18.2763C17.6223 18.4631 17.8091 18.6499 18.0582 18.899C18.3073 19.148 18.4941 19.3348 18.6186 19.3971L18.8054 19.5216C18.9299 19.5839 19.0545 19.6462 19.2413 19.7084C19.4281 19.7707 19.5526 19.7707 19.6771 19.7707L21.7942 19.7084C21.981 19.7084 22.1678 19.6462 22.2924 19.5839C22.4169 19.5216 22.4792 19.4594 22.4792 19.3348C22.4792 19.2726 22.4792 19.148 22.4792 19.0858C22.3546 18.9612 22.3546 18.899 22.3546 18.8367Z" fill="white"/>
</svg>
