<svg width="224" height="105" viewBox="0 0 224 105" fill="none" xmlns="http://www.w3.org/2000/svg">
<path d="M2 26.2058C11.6661 24.0127 15.565 25.7186 18.4892 30.6734C22.2048 36.9693 22.0632 43.7511 28.0741 43.7511C46.5127 43.7511 68.4442 2 52.4423 2C39.7708 2 28.0741 29.3737 28.0741 45.0506C28.0741 53.0109 32.8665 60.3215 39.2022 60.3215C46.1878 60.3215 51.0615 51.8866 51.0615 45.3072C51.0615 38.7279 41.6391 39.6896 41.7203 45.7817C41.8015 51.8738 55.7727 47.9748 57.5597 43.7511C56.7474 49.1932 54.9765 60.3215 60.5651 60.3215C66.1537 60.3215 73.8052 43.4261 73.8052 37.7402C73.8052 30.0234 63.0019 34.0849 63.0019 42.0452C63.0019 46.8376 64.3828 50.4117 68.6879 50.4117C74.455 50.4117 77.496 45.0506 80.4202 41.1518C77.2518 47.4875 71.6476 60.3215 77.5772 60.3215C82.4617 60.3215 88.5 34.6315 97.5 34.6315C103.953 34.6315 98.3957 42.6948 95 47C99 50.4117 100.5 53.9554 100.5 57.8847C100.5 87.1265 85.9436 102.073 75.8714 102.073C70.9978 102.073 65.0681 100.063 65.0681 89.9695C65.0681 71.8557 120.5 39.2598 120.5 36.5C120.5 25.6155 108.2 43.2636 108.2 54.5543C108.2 57.1535 109.418 60.3215 111.53 60.3215C116.648 60.3215 122.226 47.7311 124.5 44.7258C121.819 53.4171 122.577 60.3215 125.501 60.3215C131.269 60.3215 136 48.4623 141.26 34.0849C139.066 41.1518 131.794 60.3215 133.5 60.3215C135.287 53.8233 138.144 48.4623 140.5 48.4623C142.856 48.4623 143.445 50.5742 145.455 50.5742C148.623 50.5742 152.225 43.0199 153.525 39.0398C151.615 44.8882 149.626 48.9495 149.626 53.0922C149.626 56.7473 150.763 60.3215 153.038 60.3215C157.099 60.3215 167.415 41.0706 170.908 34.0849C167.984 39.9332 162.785 49.5994 162.785 54.5543C162.785 58.2096 164.247 60.3215 167.334 60.3215C172.857 60.3215 179.68 52.3238 179.68 48.4623C179.68 43.5073 172.857 43.8322 172.857 48.4623C172.857 51.4676 175.05 52.0362 176.512 52.0362C190.803 52.0362 197.063 30.917 222 37.334" stroke="#EB5757" stroke-width="4" stroke-linecap="round"/>
</svg>
