<?xml version="1.0" encoding="utf-8"?>
<!-- Generator: Adobe Illustrator 24.1.0, SVG Export Plug-In . SVG Version: 6.00 Build 0)  -->
<svg version="1.1" id="Layer_1" xmlns="http://www.w3.org/2000/svg" xmlns:xlink="http://www.w3.org/1999/xlink" x="0px" y="0px"
	 viewBox="0 0 510.236 411.024" style="enable-background:new 0 0 510.236 411.024;" xml:space="preserve">
<style type="text/css">
	.st0{fill-rule:evenodd;clip-rule:evenodd;fill:#0C0E0F;}
</style>
<g>
	<path class="st0" d="M427.576,251.826c12.112,0,22.091,9.975,22.091,21.376c0,12.118-9.981,22.091-22.091,22.091
		c-11.404,0-21.376-9.975-21.376-22.091C406.2,261.802,416.176,251.826,427.576,251.826z M427.576,250.404
		c-12.118,0-22.805,9.975-22.805,22.802c0,12.832,10.69,23.522,22.805,23.522c12.826,0,23.516-10.69,23.516-23.522
		C451.092,260.376,440.403,250.403,427.576,250.404L427.576,250.404z"/>
	<path class="st0" d="M422.589,272.494v-7.841h3.562c4.991,0,6.419,1.428,6.419,4.276c0,2.851-1.428,3.568-6.419,3.568h-3.562
		V272.494z M419.735,262.516v22.091h2.851v-9.264h0.714c4.985,0,6.413,0.714,9.975,9.264h3.568c-3.568-7.836-3.568-8.55-7.127-9.975
		c4.991-0.714,6.413-3.568,6.413-5.705c0-4.276-2.851-6.413-7.841-6.413h-8.553V262.516L419.735,262.516z M276.502,184.129
		c-11.404,2.848-33.494,4.276-57.01-4.988c3.565-10.69,12.826-31.355,33.494-47.032
		C260.111,140.659,273.651,159.188,276.502,184.129L276.502,184.129z M360.588,115.718h-0.708
		c-19.954-12.826-46.321-20.665-78.387-13.541c-46.324,10.69-66.989,51.309-72.691,71.262c-2.851-1.425-5.702-3.565-8.55-5.699
		c0.711,0.714,1.425,0.714,1.425,0.714c2.851-14.252,14.963-54.159,57.725-72.688c39.193-16.391,94.064-7.839,123.279,38.482
		c0.714,2.137,1.428,0.711,0.714,0c-19.954-45.607-74.11-74.113-130.409-52.734c-44.895,17.103-59.147,65.56-60.573,79.812
		c-0.714-0.711-2.137-1.425-2.851-2.848c-1.425-0.714-2.14-2.137-3.562-3.565c2.137-19.954,14.252-61.995,56.296-81.952
		c37.768-17.817,92.641-10.69,123.996,34.206c0.714,1.425,1.423,0.714,0.714-0.714c-21.382-44.895-76.964-70.548-131.838-47.032
		c-43.47,17.814-54.871,64.846-57.722,85.514c-2.137-3.562-3.562-6.413-5.699-9.264c1.423-27.793,14.963-67.7,57.007-87.654
		c38.479-17.817,92.638-9.978,123.279,34.917c1.428,1.425,2.137,0.711,1.428-0.714c-21.376-44.181-76.964-70.548-131.838-47.032
		c-42.758,17.814-54.871,61.998-57.01,84.089c-2.43-6.68-4.103-13.612-4.988-20.665c1.425-16.391,12.826-55.585,54.871-74.824
		c38.482-17.817,91.213-11.401,122.57,32.78c1.428,1.425,1.428,0.714,0.714,0c-24.944-45.607-75.541-69.125-130.409-45.607
		c-21.376,8.553-34.917,23.516-43.47,39.193c-3.565,6.413-7.127,14.252-9.264,23.516c-2.14,7.839-2.851,14.966-2.851,19.243v0.711
		c-1.425,23.516,4.988,50.597,27.078,74.824c32.783,35.628,78.39,32.78,98.346,27.79c0,2.851,0,6.413-0.714,9.978
		c0-0.714-0.714-1.425-0.714-1.425c-13.541,4.988-54.159,14.252-91.213-13.541c-33.494-25.653-53.445-76.964-27.792-125.422
		c0.714-2.137-0.714-2.137-0.714-1.425c-29.929,40.619-27.078,101.906,19.24,139.67c37.057,29.929,86.228,18.525,99.763,12.826
		c-0.708,0.714-0.708,2.137-1.423,3.562c0,1.428-0.714,2.851-1.423,4.276c-18.528,8.55-60.572,19.245-98.343-7.122
		c-34.917-24.23-56.299-74.827-32.78-123.996c0.711-2.137-0.714-2.137-0.714-1.425c-28.504,41.33-22.805,102.617,24.941,138.248
		c37.057,28.504,83.377,14.963,101.906,7.127c-1.423,3.562-2.851,6.413-4.276,9.258c-24.941,12.826-66.275,21.382-104.757-4.985
		c-34.206-24.23-54.871-75.539-31.355-124.71c0.711-1.425,0-1.425-0.714-0.714c-27.793,41.333-22.802,102.617,24.941,138.251
		c36.342,27.79,80.526,16.389,101.191,7.122c-5.699,6.419-11.401,11.404-16.391,14.969c-15.677,7.122-54.159,15.677-91.213-10.69
		c-34.206-24.23-55.585-73.402-32.78-122.573c0.714-1.425,0-1.425-0.714-0.714c-26.367,44.181-22.091,99.766,25.653,136.111
		c18.528,14.249,39.193,17.817,56.296,17.817c8.553,0,19.243-1.428,29.218-4.991c5.699-1.428,10.69-3.568,14.252-5.699
		c0,0,0.714,0,0.714-0.714c20.665-10.69,40.619-30.643,50.597-61.284c14.249-45.609-10.69-83.377-25.659-98.343
		c2.851-1.425,5.705-2.851,9.264-4.276c-0.714,0-0.714,0.711-0.714,0.711c11.404,9.264,39.199,39.907,33.494,86.228
		c-4.991,42.044-39.907,84.8-94.778,86.937c-2.137,0-0.711,0.714,0,1.428c49.172,4.985,101.191-27.795,110.456-86.943
		c7.836-47.032-26.367-84.086-38.479-91.927c1.423-0.714,2.137-1.425,3.562-1.425c1.423-0.711,3.562-0.711,4.991-1.425
		c16.389,12.115,47.029,43.47,42.756,89.79c-3.562,42.041-36.342,86.225-91.213,89.793c-2.137,0.708-1.425,1.423,0,1.423
		c49.169,3.562,99.766-31.358,106.893-90.505c5.699-46.318-28.504-79.812-44.892-92.638h9.975
		c23.516,14.966,52.02,46.321,47.743,92.638c-3.562,42.044-37.057,85.514-91.927,89.79c-2.137,0-1.423,0.714,0,0.714
		c49.175,3.562,99.763-31.358,106.89-90.505c5.705-45.606-26.367-78.387-44.178-91.213c7.836,1.425,14.963,3.565,20.662,6.413
		c13.541,9.975,40.616,39.193,37.057,84.8c-3.562,42.044-36.342,84.8-89.79,89.082c-2.137,0.708-1.423,1.423-0.714,1.423
		c52.025,0.714,97.632-31.358,104.759-90.505C410.476,157.762,376.265,125.693,360.588,115.718L360.588,115.718z M225.194,352.306
		c0-0.714,0.711-0.714,1.425-0.714h11.401c1.425,0,2.14,0,2.14,0.714h-2.14c-2.137,0-2.848,1.428-2.848,2.851v44.892
		c0,4.276,2.848,3.568,9.978,3.568h8.55c1.425,0,3.565-0.714,4.988-4.277c0.714-0.714,0.714-1.428,0.714-1.428
		c0-0.708,0-0.708,0.708-0.708v1.423c-0.708,2.851-1.423,3.562-1.423,6.413c0,0.714-0.714,0.714-0.714,0.714H224.48
		c0-0.714,0-0.714,0.714-0.714c1.425,0,4.276,0,4.276-3.562v-45.606c0-2.137-0.711-3.568-2.851-3.568L225.194,352.306
		L225.194,352.306z M277.216,352.306c-0.714,0-1.428,0-1.428-0.714h9.981c1.423,0,1.423,0.714,1.423,2.143
		c3.562,11.398,6.413,20.662,14.963,42.756c4.276-9.975,12.118-29.218,16.391-42.756c0.708-2.143,0.708-2.143,2.137-2.143h7.122
		c1.428,0,1.428,0,1.428,0.714h-1.428c-2.137,0-3.562,1.428-3.562,4.991c0.714,9.264,3.562,41.33,4.276,43.47
		c0,1.423,0,4.276,3.568,4.276h1.423c0,0.714-0.714,0.714-1.423,0.714h-11.401c-0.714,0-2.137,0-2.137-0.714h1.423
		c2.851,0,2.851-0.714,2.851-4.276c-0.714-7.836-3.568-39.907-3.568-41.33c-0.708,1.423-17.103,44.892-17.817,45.607
		c0,0.714,0,1.423-0.708,1.423c-0.714,0-0.714-1.423-0.714-2.137c-0.714,0-14.963-42.756-15.677-43.47
		c-2.137,15.677-3.562,38.485-3.562,40.622c0,3.562,2.137,3.562,3.562,3.562h0.714c0,0.714-0.714,0.714-0.714,0.714h-11.404
		c0-0.714,0.714-0.714,1.428-0.714c2.137,0,3.562-2.137,3.562-4.991c2.137-13.535,3.568-39.193,3.568-44.178
		C281.493,352.306,278.642,352.306,277.216,352.306L277.216,352.306z M368.429,353.02c0-1.428,0.708-2.137,1.423-2.137
		s0.714,1.423,1.428,2.137l14.963,47.029c2.137,3.568,4.277,4.276,5.699,4.991h1.423c0,0.714-0.708,0.714-2.137,0.714h-9.975
		c-1.423,0-2.137,0-2.137-0.714h1.423c0.714,0,1.428-0.714,1.428-2.137c-2.137-7.127-6.413-18.525-6.413-19.24
		c-0.714-0.714,0-0.714-1.428-0.714c-2.137-0.708-9.975-0.708-12.112,0c-0.714,0-1.428,0-1.428,0.714s-4.276,13.541-4.985,17.103
		c0,2.851,1.423,4.276,3.562,4.276h0.714c0,0.714,0,0.714-1.428,0.714h-10.69c-0.708,0-1.423,0-1.423-0.714h1.423
		c2.851,0,3.568-2.137,4.277-4.991L368.429,353.02L368.429,353.02z M362.016,379.387c0,0.708,0,0.708,0.708,0.708h10.696
		c0.708,0,0.708,0,0.708-0.708l-5.699-19.24L362.016,379.387L362.016,379.387z M414.75,351.589h-8.55
		c0,0.714,0.708,0.714,1.423,0.714c2.137,0,4.276,0.714,4.276,3.568v45.606c0,2.845-1.423,3.562-4.276,3.562h-0.714
		c0,0.714,0.714,0.714,1.428,0.714h11.398c1.428,0,3.568,0,3.568-0.714h-1.428c-1.423,0-4.276,0-4.276-4.991v-21.376
		c0-0.714,0.714-0.714,0.714-0.714h7.127c0.708,0,0.708,0,1.423,0.714c5.705,7.841,12.118,18.531,17.817,24.23
		c4.277,4.991,10.69,6.413,14.963,6.413c0.714,0,2.137,0,2.137-0.714h-0.714c-2.845-0.708-5.699-1.423-7.122-2.845
		c-3.568-2.137-5.705-5.705-7.127-7.842l-13.541-19.954c-0.708-0.708-1.423-1.423-1.423-2.137c0.714-1.423,7.127-4.985,7.127-12.112
		c0-4.277-1.428-7.127-2.851-8.55c-4.276-4.991-10.69-4.276-14.963-4.276C419.735,350.881,416.176,351.589,414.75,351.589
		L414.75,351.589z M433.275,365.13c0,4.991-1.423,10.69-7.836,10.69h-6.413c-1.428,0-1.428,0-1.428-1.423v-19.24
		c0-2.137,1.428-2.137,2.851-2.851c2.851,0,5.699,0.714,7.836,2.137C431.853,356.58,433.275,360.856,433.275,365.13L433.275,365.13z
		 M468.195,352.306c-0.708,0-0.708,0-0.708-0.714h15.672c0,0.714-0.708,0.714-0.708,0.714c-1.428,0-4.991,0-4.991,4.276v40.622
		c0,3.562,0,7.836,4.276,7.836h1.423c0,0.714-0.708,0.714-4.277,0.714h-12.112c0-0.714,0.714-0.714,1.423-0.714
		c2.137,0,4.276-0.714,4.276-3.562v-44.898C472.469,353.734,471.046,352.306,468.195,352.306L468.195,352.306z"/>
	<path class="st0" d="M496.699,352.306c-0.708,0-1.423,0-1.423-0.714H508.1c0,0.714,0,0.714-1.423,0.714
		c-2.137,0-3.568,1.428-4.991,2.851c-5.699,5.699-11.404,12.826-17.817,19.24c0,0-0.714,0.714-0.714,1.423l1.428,1.428
		c0,0.708,15.677,21.376,16.389,22.091c0.714,0.708,2.851,3.562,5.705,4.985c1.423,0.714,2.137,0.714,2.845,0.714
		c0.714,0,0.714,0,0.714,0.714h-13.541c0-0.714,1.428-0.714,1.428-1.428l-0.714-0.708c-2.137-4.276-15.677-21.376-17.817-23.522
		c-0.714-1.423-1.423-1.423-1.423-2.137c0-0.708,0.708-1.423,2.137-2.845c4.991-5.705,12.827-14.255,16.389-18.531
		c0.714-0.708,2.137-2.137,2.137-2.845C498.836,352.306,497.413,352.306,496.699,352.306L496.699,352.306z M158.208,378.673
		c0-16.389,10.69-28.504,24.941-28.504s25.653,12.826,25.653,28.504c0,15.677-10.69,27.79-24.941,27.79
		C169.609,406.463,158.208,394.351,158.208,378.673L158.208,378.673z M165.332,383.661c4.276,14.963,14.966,22.802,24.941,19.954
		c10.69-2.851,15.677-14.963,11.401-29.935c-4.276-15.672-14.255-23.516-24.941-20.662
		C166.047,356.58,161.059,368.698,165.332,383.661z M92.648,378.673c0-16.389,10.69-28.504,24.941-28.504
		c14.255,0,25.656,12.826,25.656,28.504c0,15.677-10.69,27.79-24.941,27.79C104.048,406.463,92.648,394.351,92.648,378.673z
		 M99.772,383.661c4.276,14.963,14.966,22.802,25.653,19.954c9.978-2.851,14.966-14.963,10.69-29.935
		c-4.273-15.672-14.252-23.516-24.941-20.662C100.486,356.58,95.499,368.698,99.772,383.661L99.772,383.661z M89.082,335.918h-10.69
		c-1.425,0-2.848-0.714-2.848,0c0,0.708,0.711,0.708,0.711,0.708c2.137,0,3.562,0.714,3.562,3.568c0,1.423,0,3.562-0.714,5.699
		c-7.125,18.531-14.252,35.631-20.665,50.597c-3.565-9.975-7.127-20.668-10.69-30.643c3.562-8.55,7.127-16.389,9.978-23.516
		c2.137-4.276,4.276-5.705,5.699-5.705c1.425,0,1.425,0,1.425-0.708c0-0.714-0.714-0.714-2.14,0h-9.975
		c-2.14,0-3.562-0.714-3.562,0.708h1.423c1.425,0,2.851,0.714,2.851,3.568c0.711,1.423,0,3.562-0.714,5.699
		c-2.14,5.699-4.276,10.69-6.413,16.391c-2.848-9.264-4.988-17.109-6.413-22.091c-0.711-2.137,0-2.851,1.425-3.568
		c1.425,0,2.137,0.714,2.848,0h0.714c0-1.423-2.137-0.708-3.562-0.708H29.218c-1.425,0-2.851,0-2.851,0.708c0,0,0.714,0.714,1.425,0
		c2.851,0,4.276,2.137,5.702,4.276l9.978,29.935l-10.69,25.653c-7.839-20.668-16.391-45.606-19.24-56.296
		c-0.714-2.137,0-2.851,1.425-3.568c1.425,0,2.137,0.714,2.848,0.714l0.714-0.714c0-1.423-1.425-0.708-3.565-0.708H2.851
		c-1.425,0-2.851,0-2.851,0.708c0,0,0.714,0.714,1.425,0.714c2.851-0.714,4.273,1.423,4.988,3.562l22.805,63.423
		c0,0.714,0,2.137,1.425,2.137c0.711,0,1.423-0.708,2.137-2.137c2.851-8.55,7.127-19.24,12.115-29.929l9.978,29.929
		c0,0.714,0.714,2.137,1.425,2.137c0.714,0,1.425-0.708,2.14-2.137c7.127-17.103,17.814-44.178,25.653-61.995
		c1.425-4.276,3.562-5.705,5.699-5.705c0.714,0,1.425,0,1.425-0.708C91.219,335.203,90.508,335.203,89.082,335.918L89.082,335.918z"
		/>
</g>
</svg>
