<svg width="30" height="30" viewBox="0 0 30 30" fill="none" xmlns="http://www.w3.org/2000/svg">
<path d="M29.9827 15.41C29.9827 15.3435 29.9827 15.2767 29.9827 15.2099C29.9827 15.0917 29.9827 14.9736 29.9827 14.8554C29.9827 14.7893 29.9827 14.7232 29.9827 14.6571C29.981 14.1242 29.9772 13.5903 29.9097 13.062C29.7209 11.5902 29.3186 10.1781 28.7049 8.82479C27.9719 7.2094 26.9868 5.76727 25.7524 4.49701C25.0673 3.7923 24.3168 3.16164 23.5036 2.60711C22.4992 1.92203 21.4332 1.35579 20.2925 0.931794C20.2277 0.907683 20.1633 0.88254 20.092 0.896662C20.0352 0.914228 19.9932 0.953837 19.9494 0.991036C19.3387 1.51319 18.7367 2.045 18.1291 2.57026C17.2825 3.30183 16.4404 4.03857 15.5948 4.77152C14.9789 5.30539 14.3672 5.84339 13.749 6.37416C13.6863 6.42789 13.606 6.47955 13.6329 6.58564C13.6825 6.66589 13.7696 6.68518 13.8489 6.71618C15.9037 7.52456 17.9614 8.32709 20.0193 9.12755C20.1602 9.18231 20.2222 9.25946 20.2208 9.41962C20.2139 10.372 20.2177 11.3247 20.217 12.277C20.217 12.3917 20.2239 12.5064 20.2084 12.6211C20.1888 12.6941 20.1244 12.7286 20.0731 12.7716C18.4126 14.1569 16.7462 15.5357 15.0864 16.9217C14.6242 17.3078 14.1554 17.6863 13.697 18.0769C13.6239 18.1393 13.511 18.193 13.5802 18.3259C13.7972 18.472 14.051 18.5333 14.2897 18.627C16.1893 19.3723 18.0933 20.106 19.9887 20.862C20.2177 20.9533 20.2177 20.9553 20.2177 21.1995C20.2181 22.1743 20.2181 23.149 20.2174 24.1238C20.2174 24.1978 20.2274 24.2736 20.1867 24.3425C20.144 24.4282 20.0617 24.4754 19.9921 24.5329C18.2621 25.9572 16.5371 27.3879 14.8088 28.8142C14.433 29.1242 14.0528 29.429 13.6846 29.748C13.6267 29.7979 13.5272 29.8379 13.5799 29.9498C13.6749 29.9984 13.7838 29.9612 13.8805 29.9991C13.9263 29.9991 13.9725 29.9991 14.0183 29.9991C14.0414 29.9777 14.0641 29.9777 14.0872 29.9991C14.133 29.9991 14.1792 29.9991 14.225 29.9991C14.2939 29.9719 14.3627 29.9719 14.4316 29.9991C14.7991 29.9991 15.1663 29.9991 15.5338 29.9991C15.5913 29.9715 15.6485 29.9715 15.706 29.9991C15.7635 29.9991 15.8207 29.9991 15.8782 29.9991C15.9013 29.9777 15.9241 29.9777 15.9471 29.9991C15.9702 29.9991 15.9929 29.9991 16.016 29.9991C16.057 29.9674 16.1045 29.9856 16.149 29.9822C16.4855 29.9564 16.8247 29.9643 17.1595 29.9154C18.5479 29.7122 19.8823 29.3257 21.1615 28.7453C23.2498 27.7982 25.0343 26.449 26.5122 24.6976C27.4208 23.6209 28.16 22.435 28.7324 21.1468C29.5439 19.321 30.0082 17.4187 29.9827 15.41Z" fill="#FE0000"/>
<path d="M16.3667 23.1312C16.4332 23.0744 16.5169 23.0127 16.4611 22.9004C16.4022 22.8316 16.3185 22.8068 16.2386 22.7758C15.9334 22.6586 15.6286 22.5402 15.3234 22.4224C13.5627 21.7421 11.8047 21.055 10.0433 20.3771C9.78254 20.2769 9.78288 20.2748 9.78254 19.991C9.78254 19.0211 9.7822 18.0512 9.78288 17.0813C9.78288 17.0014 9.776 16.9204 9.80045 16.8415C9.81492 16.7861 9.86314 16.7613 9.9024 16.7293C11.6903 15.2647 13.469 13.7892 15.2549 12.3219C15.6358 12.0088 16.0181 11.6971 16.3956 11.3799C16.4621 11.3241 16.5551 11.27 16.4886 11.1557C16.4294 11.0975 16.3512 11.0737 16.2768 11.0454C15.7619 10.8505 15.2504 10.6473 14.7368 10.4492C13.1638 9.84269 11.5936 9.2296 10.0205 8.6234C9.78323 8.53178 9.78323 8.52971 9.78323 8.27311C9.78289 7.28666 9.78289 6.29986 9.78323 5.31341C9.78323 5.23901 9.77841 5.16427 9.79563 5.09021C9.85177 4.99308 9.94752 4.93625 10.0312 4.86909C11.9111 3.36599 13.7821 1.85187 15.662 0.348422C15.7247 0.29848 15.7936 0.254392 15.8435 0.191361C15.8807 0.144519 15.9362 0.0900983 15.8476 0.0367114C15.6864 -0.00324271 15.5221 0.0263784 15.3596 0.0170788C15.29 0.0170788 15.2201 0.0170788 15.1502 0.0170788C15.0406 0.0170788 14.9308 0.0170788 14.8212 0.0170788C14.7544 0.0170788 14.6876 0.0170788 14.6208 0.0170788C14.1964 0.0119123 13.7714 0.0229341 13.3502 0.0584106C12.5717 0.123853 11.8071 0.27678 11.0521 0.482406C8.5636 1.15956 6.3954 2.4033 4.53237 4.17919C3.76188 4.91352 3.08404 5.73017 2.49127 6.6157C1.80172 7.6459 1.2403 8.74119 0.818025 9.90675C0.456716 10.9028 0.203215 11.9258 0.0692307 12.9774C0.0278989 13.3001 0.050287 13.6273 0 13.9493C0 13.9952 0 14.0413 0 14.0871C0.0210103 14.1064 0.0161883 14.1319 0.0172216 14.156C0.0161883 14.1801 0.0210103 14.2056 0 14.2249C0 14.6727 0 15.1204 0 15.5682C0.0272101 15.6371 0.0272101 15.7059 0 15.7748C0 15.8782 0 15.9815 0 16.0848C0.0489093 16.3952 0.0268656 16.711 0.0661308 17.0217C0.257979 18.5485 0.692307 20.0051 1.34638 21.3956C2.22434 23.2621 3.4326 24.8844 4.97187 26.2586C6.20218 27.357 7.58369 28.2188 9.09402 28.8756C9.23421 28.9366 9.37163 29.0169 9.53352 29.0117C9.63512 28.9814 9.71538 28.9187 9.79391 28.8505C10.0236 28.6521 10.2506 28.4503 10.48 28.2515C11.2157 27.6136 11.9511 26.9751 12.6847 26.3351C13.4573 25.6611 14.2309 24.988 15.0048 24.3157C15.4595 23.9213 15.9086 23.5211 16.3667 23.1312Z" fill="#FE0000"/>
<path d="M29.9712 15.2249C29.9712 15.0981 29.9712 14.9717 29.9712 14.845C29.9812 14.8267 29.9905 14.826 29.9998 14.8453C29.9998 14.9717 29.9998 15.0978 29.9998 15.2242C29.9908 15.2435 29.9812 15.2428 29.9712 15.2249Z" fill="#FDD4D4"/>
<path d="M15.1558 0.0285878C15.0408 0.0285878 14.9254 0.0285878 14.8104 0.0285878C14.7969 0.0220436 14.7925 0.0154994 14.7973 0.00929966C14.8014 0.00309989 14.8059 0 14.8107 0C14.9254 0 15.0405 0 15.1551 0C15.1689 0.00619977 15.1734 0.0123995 15.1689 0.0189437C15.1648 0.0254879 15.1603 0.0285878 15.1558 0.0285878Z" fill="#FDD2D2"/>
<path d="M14.8104 0C14.8104 0.00964409 14.81 0.0189437 14.8097 0.0285878C14.7408 0.0285878 14.6719 0.0285878 14.603 0.0285878C14.6034 0.0189437 14.6034 0.00964409 14.6037 0C14.6726 0 14.7415 0 14.8104 0Z" fill="#FDE6E6"/>
<path d="M15.1555 0.0285878C15.1551 0.0189437 15.1548 0.00964409 15.1548 0C15.2237 0 15.2926 0 15.3614 0C15.3618 0.00964409 15.3618 0.0189437 15.3621 0.0285878C15.2932 0.0285878 15.2244 0.0285878 15.1555 0.0285878Z" fill="#FDE6E6"/>
<path d="M30.0001 14.8453L29.9857 14.8446L29.9712 14.8449C29.9712 14.776 29.9712 14.7071 29.9712 14.6379C29.9808 14.6369 29.9901 14.6369 29.9998 14.6386C30.0001 14.7075 30.0001 14.7764 30.0001 14.8453Z" fill="#FDE5E5"/>
<path d="M29.9712 15.2243C29.9808 15.225 29.9905 15.2247 30.0001 15.2236C30.0001 15.2925 30.0001 15.3614 30.0001 15.4303L29.9857 15.431L29.9712 15.4306C29.9712 15.3621 29.9712 15.2932 29.9712 15.2243Z" fill="#FDE9E9"/>
<path d="M0 15.5684C0.0427095 15.6373 0.0588978 15.7061 0 15.775C0 15.7061 0 15.6373 0 15.5684Z" fill="#FD3C3C"/>
<path d="M14.2251 29.9997C14.294 29.9409 14.3629 29.9557 14.4318 29.9997C14.3629 29.9997 14.294 29.9997 14.2251 29.9997Z" fill="#FD3737"/>
<path d="M15.5337 30.0001C15.5912 29.9574 15.6484 29.944 15.7059 30.0001C15.6484 30.0001 15.5912 30.0001 15.5337 30.0001Z" fill="#FD3737"/>
<path d="M0 14.0874C0.0396096 14.097 0.0323766 14.1267 0.0289323 14.1546C0.0206659 14.1783 0.0110218 14.1787 0 14.1563C0 14.1332 0 14.1105 0 14.0874Z" fill="#FD9797"/>
<path d="M0 14.1563C0.00964409 14.1552 0.0192882 14.1545 0.0289323 14.1549C0.0344432 14.1845 0.0337543 14.2114 0 14.2251C0 14.2021 0 14.1793 0 14.1563Z" fill="#FD7777"/>
<path d="M14.0186 29.9999C14.0416 29.9493 14.0644 29.9545 14.0874 29.9999C14.0644 29.9999 14.0416 29.9999 14.0186 29.9999Z" fill="#FDA7A7"/>
<path d="M15.8784 29.9999C15.9015 29.9545 15.9242 29.9493 15.9473 29.9999C15.9242 29.9999 15.9015 29.9999 15.8784 29.9999Z" fill="#FDA7A7"/>
<path d="M16.4654 22.9465C15.4324 22.5435 14.4002 22.1395 13.3665 21.7382C12.1999 21.2853 11.0326 20.8337 9.86363 20.3863C9.75135 20.3433 9.70864 20.2923 9.70933 20.1666C9.71519 19.0888 9.71209 18.0111 9.7145 16.9334C9.7145 16.8824 9.68143 16.8187 9.74618 16.7791C9.8905 16.7536 10.0152 16.8197 10.1416 16.8693C11.1239 17.2554 12.1097 17.6329 13.0913 18.0208C13.1926 18.0607 13.2952 18.0979 13.3968 18.1375C13.4726 18.1672 13.5442 18.203 13.5797 18.2836C15.1892 18.9097 16.7988 19.5356 18.408 20.1628C18.9887 20.3891 19.567 20.6219 20.1491 20.8455C20.2565 20.8868 20.291 20.9409 20.2903 21.058C20.2848 22.1247 20.2882 23.1917 20.2824 24.2584C20.282 24.2991 20.3578 24.4062 20.2214 24.4C20.0926 24.4489 19.9858 24.3724 19.8773 24.3304C18.8881 23.9481 17.8985 23.5661 16.9097 23.1817C16.8136 23.1442 16.7154 23.1122 16.6204 23.0719C16.557 23.045 16.4919 23.0192 16.4654 22.9465Z" fill="#FEFEFE"/>
<path d="M16.4897 11.2003C14.5113 10.4346 12.5325 9.66932 10.5541 8.90365C10.3089 8.80858 10.0654 8.70939 9.81806 8.61949C9.74194 8.59194 9.71094 8.55853 9.71094 8.4738C9.71369 7.35508 9.71266 6.23671 9.71335 5.118C9.71335 5.08562 9.70405 5.04739 9.74676 5.03017C9.84113 5.0126 9.92759 5.04188 10.0137 5.07529C10.9805 5.4521 11.9463 5.83235 12.9128 6.21122C13.0943 6.28252 13.2789 6.3459 13.458 6.42236C13.5252 6.45095 13.602 6.46955 13.6326 6.54946C14.3435 6.83189 15.0534 7.11674 15.7657 7.39573C17.2185 7.96473 18.6723 8.53166 20.1272 9.0955C20.2426 9.14027 20.2915 9.19194 20.2908 9.32592C20.2839 10.3864 20.2874 11.4469 20.2857 12.5074C20.2857 12.5663 20.3146 12.6342 20.2543 12.6841C20.172 12.6948 20.0969 12.67 20.0211 12.6407C18.9097 12.2119 17.7996 11.78 16.6877 11.3526C16.6068 11.3216 16.5276 11.2875 16.4897 11.2003Z" fill="#FEFEFE"/>
<path d="M16.4897 11.2002C17.6632 11.6559 18.8367 12.1112 20.0098 12.5679C20.0938 12.6007 20.1868 12.6162 20.2543 12.684C19.8796 13.0384 19.4708 13.3525 19.0754 13.6822C17.2829 15.1763 15.4874 16.6667 13.6936 18.1588C13.6502 18.1946 13.5972 18.2232 13.5796 18.2831C12.3218 17.7919 11.0642 17.3011 9.80637 16.8096C9.78536 16.8013 9.76607 16.7889 9.74609 16.7783C11.9632 14.9521 14.1803 13.1259 16.3971 11.299C16.4318 11.2708 16.4591 11.2333 16.4897 11.2002Z" fill="#FEB1B1"/>
<path d="M16.4652 22.9463C17.7172 23.4309 18.9692 23.9155 20.2212 24.3998C19.9732 24.6622 19.676 24.8672 19.4021 25.099C18.8355 25.5788 18.2593 26.0476 17.6865 26.5198C17.0741 27.025 16.4603 27.529 15.8479 28.0342C15.2796 28.503 14.7117 28.9725 14.1447 29.443C13.9515 29.6031 13.7617 29.7671 13.5702 29.9293C12.9575 29.8962 12.3561 29.7853 11.7578 29.6565C11.0476 29.5036 10.3525 29.2986 9.67468 29.0358C9.62749 29.0176 9.58341 28.9928 9.5376 28.9707C9.89891 28.7073 10.2168 28.3924 10.5564 28.1035C11.0572 27.6771 11.5522 27.2438 12.0489 26.8122C12.4332 26.4781 12.8152 26.1412 13.1993 25.8071C13.7001 25.3718 14.2026 24.9385 14.703 24.5028C15.0998 24.157 15.4966 23.8108 15.8893 23.4602C16.0815 23.2887 16.2957 23.1423 16.4652 22.9463Z" fill="#CF0000"/>
<path d="M13.6328 6.5491C13.0049 6.30731 12.3763 6.06793 11.7495 5.82269C11.0806 5.56127 10.4141 5.29433 9.74658 5.02981C10.4685 4.44875 11.1904 3.86839 11.9117 3.28699C12.8823 2.50409 13.8515 1.71982 14.8228 0.937618C15.1345 0.686527 15.4507 0.440947 15.7635 0.190546C15.8076 0.155413 15.842 0.108571 15.8813 0.0668945C16.6404 0.0830828 17.3868 0.202601 18.1266 0.359661C18.7921 0.500878 19.4499 0.673783 20.083 0.929696C19.8805 1.17321 19.6166 1.35025 19.3848 1.56207C18.988 1.92373 18.5747 2.26747 18.1679 2.61879C17.6837 3.03727 17.1984 3.45472 16.7151 3.87459C16.3225 4.21557 15.9329 4.56035 15.5403 4.90203C15.0488 5.32947 14.5555 5.75553 14.0627 6.18159C13.9197 6.30421 13.7757 6.42648 13.6328 6.5491Z" fill="#CF0000"/>
</svg>
